<svg width="128" height="128" viewBox="0 0 128 128" xmlns="http://www.w3.org/2000/svg">
  <defs>
    <linearGradient id="phoenixGradient" x1="0%" y1="0%" x2="100%" y2="100%">
      <stop offset="0%" style="stop-color:#f43f5e;stop-opacity:1" />
      <stop offset="50%" style="stop-color:#fb923c;stop-opacity:1" />
      <stop offset="100%" style="stop-color:#fbbf24;stop-opacity:1" />
    </linearGradient>
  </defs>
  
  <!-- 背景圆形 -->
  <circle cx="64" cy="64" r="60" fill="url(#phoenixGradient)" stroke="#ffffff" stroke-width="2"/>
  
  <!-- 凤凰火焰 -->
  <path d="M64,20 C54,30 44,35 44,45 C44,55 54,60 64,70 C74,60 84,55 84,45 C84,35 74,30 64,20 Z" fill="#ffffff" opacity="0.9"/>
  <path d="M64,25 C56,33 50,37 50,44 C50,51 56,55 64,63 C72,55 78,51 78,44 C78,37 72,33 64,25 Z" fill="#ffffff" opacity="0.7"/>
  
  <!-- 装饰点 -->
  <circle cx="52" cy="52" r="2" fill="#ffffff"/>
  <circle cx="76" cy="52" r="2" fill="#ffffff"/>
</svg>